<svg width="32" height="32" viewBox="0 0 32 32" fill="none" xmlns="http://www.w3.org/2000/svg">
<path d="M8 29.3332V5.33317C8 4.62593 8.28095 3.94765 8.78105 3.44755C9.28115 2.94746 9.95942 2.6665 10.6667 2.6665H21.3333C22.0406 2.6665 22.7189 2.94746 23.219 3.44755C23.719 3.94765 24 4.62593 24 5.33317V29.3332H8Z" stroke="#98A3B3" stroke-opacity="0.4" stroke-width="2.66667" stroke-linecap="round" stroke-linejoin="round"/>
<path d="M7.99984 16H5.33317C4.62593 16 3.94765 16.281 3.44755 16.781C2.94746 17.2811 2.6665 17.9594 2.6665 18.6667V26.6667C2.6665 27.3739 2.94746 28.0522 3.44755 28.5523C3.94765 29.0524 4.62593 29.3333 5.33317 29.3333H7.99984" stroke="#98A3B3" stroke-opacity="0.4" stroke-width="2.66667" stroke-linecap="round" stroke-linejoin="round"/>
<path d="M24 12H26.6667C27.3739 12 28.0522 12.281 28.5523 12.781C29.0524 13.2811 29.3333 13.9594 29.3333 14.6667V26.6667C29.3333 27.3739 29.0524 28.0522 28.5523 28.5523C28.0522 29.0524 27.3739 29.3333 26.6667 29.3333H24" stroke="#98A3B3" stroke-opacity="0.4" stroke-width="2.66667" stroke-linecap="round" stroke-linejoin="round"/>
<path d="M13.3335 8H18.6668" stroke="#98A3B3" stroke-opacity="0.4" stroke-width="2.66667" stroke-linecap="round" stroke-linejoin="round"/>
<path d="M13.3335 13.3335H18.6668" stroke="#98A3B3" stroke-opacity="0.4" stroke-width="2.66667" stroke-linecap="round" stroke-linejoin="round"/>
<path d="M13.3335 18.6665H18.6668" stroke="#98A3B3" stroke-opacity="0.4" stroke-width="2.66667" stroke-linecap="round" stroke-linejoin="round"/>
<path d="M13.3335 24H18.6668" stroke="#98A3B3" stroke-opacity="0.4" stroke-width="2.66667" stroke-linecap="round" stroke-linejoin="round"/>
</svg>
